HIERARCHY
ROOT Hips
{
    OFFSET   0.000000   0.000000   0.000000
    CHANNELS 6 Xposition Yposition Zposition Zrotation Xrotation Yrotation
    JOINT Chest
    {
        OFFSET   0.000000   8.007230   0.000000
        CHANNELS 3 Zrotation Xrotation Yrotation
        JOINT Chest2
        {
            OFFSET   0.000000  22.077100   0.000000
            CHANNELS 3 Zrotation Xrotation Yrotation
            JOINT Neck
            {
                OFFSET   0.000000  23.254800  -0.000021
                CHANNELS 3 Zrotation Xrotation Yrotation
                JOINT Head
                {
                    OFFSET   0.000000  14.370000   1.956610
                    CHANNELS 3 Zrotation Xrotation Yrotation
                    End Site
                    {
                        OFFSET   0.000000  19.566000   0.000000
                    }
                }
            }
            JOINT LeftCollar
            {
                OFFSET   3.911900  19.017000  -0.467063
                CHANNELS 3 Zrotation Xrotation Yrotation
                JOINT LeftShoulder
                {
                    OFFSET  10.383700   0.000000   0.000000
                    CHANNELS 3 Zrotation Xrotation Yrotation
                    JOINT LeftElbow
                    {
                        OFFSET  26.662100   0.001529   0.000325
                        CHANNELS 3 Zrotation Xrotation Yrotation
                        JOINT LeftWrist
                        {
                            OFFSET  28.869000  -0.000011  -0.000096
                            CHANNELS 3 Zrotation Xrotation Yrotation
                            JOINT LeftFinger0
                            {
                                OFFSET   2.044650  -2.323460   3.252850
                                CHANNELS 3 Zrotation Xrotation Yrotation
                                JOINT LeftFinger01
                                {
                                    OFFSET   3.088130   0.000000   0.000000
                                    CHANNELS 3 Zrotation Xrotation Yrotation
                                    JOINT LeftFinger02
                                    {
                                        OFFSET   2.639460   0.000000   0.000000
                                        CHANNELS 3 Zrotation Xrotation Yrotation
                                        End Site
                                        {
                                            OFFSET   2.582190   0.000000   0.000000
                                        }
                                    }
                                }
                            }
                            JOINT LeftFinger1
                            {
                                OFFSET   8.364480   0.000000   3.252850
                                CHANNELS 3 Zrotation Xrotation Yrotation
                                JOINT LeftFinger11
                                {
                                    OFFSET   4.646930   0.000000   0.000000
                                    CHANNELS 3 Zrotation Xrotation Yrotation
                                    JOINT LeftFinger12
                                    {
                                        OFFSET   2.323460   0.000000   0.000000
                                        CHANNELS 3 Zrotation Xrotation Yrotation
                                        End Site
                                        {
                                            OFFSET   2.273050   0.000000   0.000000
                                        }
                                    }
                                }
                            }
                            JOINT LeftFinger2
                            {
                                OFFSET   8.364480   0.000016   1.078090
                                CHANNELS 3 Zrotation Xrotation Yrotation
                                JOINT LeftFinger21
                                {
                                    OFFSET   5.111620   0.000000   0.000000
                                    CHANNELS 3 Zrotation Xrotation Yrotation
                                    JOINT LeftFinger22
                                    {
                                        OFFSET   2.788160   0.000017   0.000000
                                        CHANNELS 3 Zrotation Xrotation Yrotation
                                        End Site
                                        {
                                            OFFSET   2.727660   0.000000   0.000000
                                        }
                                    }
                                }
                            }
                            JOINT LeftFinger3
                            {
                                OFFSET   7.899780   0.000015  -1.078090
                                CHANNELS 3 Zrotation Xrotation Yrotation
                                JOINT LeftFinger31
                                {
                                    OFFSET   4.646920   0.000000   0.000000
                                    CHANNELS 3 Zrotation Xrotation Yrotation
                                    JOINT LeftFinger32
                                    {
                                        OFFSET   2.323470   0.000000   0.000000
                                        CHANNELS 3 Zrotation Xrotation Yrotation
                                        End Site
                                        {
                                            OFFSET   2.273050   0.000000   0.000000
                                        }
                                    }
                                }
                            }
                            JOINT LeftFinger4
                            {
                                OFFSET   7.435090   0.000000  -3.252850
                                CHANNELS 3 Zrotation Xrotation Yrotation
                                JOINT LeftFinger41
                                {
                                    OFFSET   3.717550   0.000000   0.000000
                                    CHANNELS 3 Zrotation Xrotation Yrotation
                                    JOINT LeftFinger42
                                    {
                                        OFFSET   1.858760   0.000000   0.000000
                                        CHANNELS 3 Zrotation Xrotation Yrotation
                                        End Site
                                        {
                                            OFFSET   1.818440   0.000000   0.000000
                                        }
                                    }
                                }
                            }
                        }
                    }
                }
            }
            JOINT RightCollar
            {
                OFFSET  -3.911900  19.017000  -0.467062
                CHANNELS 3 Zrotation Xrotation Yrotation
                JOINT RightShoulder
                {
                    OFFSET -10.383700   0.000015   0.000000
                    CHANNELS 3 Zrotation Xrotation Yrotation
                    JOINT RightElbow
                    {
                        OFFSET -26.662100   0.001341   0.000385
                        CHANNELS 3 Zrotation Xrotation Yrotation
                        JOINT RightWrist
                        {
                            OFFSET -28.869000   0.000025  -0.000080
                            CHANNELS 3 Zrotation Xrotation Yrotation
                            JOINT RightFinger0
                            {
                                OFFSET  -2.044650  -2.323490   3.252850
                                CHANNELS 3 Zrotation Xrotation Yrotation
                                JOINT RightFinger01
                                {
                                    OFFSET  -3.088130   0.000000   0.000000
                                    CHANNELS 3 Zrotation Xrotation Yrotation
                                    JOINT RightFinger02
                                    {
                                        OFFSET  -2.639460   0.000000   0.000000
                                        CHANNELS 3 Zrotation Xrotation Yrotation
                                        End Site
                                        {
                                            OFFSET  -2.582190   0.000000   0.000000
                                        }
                                    }
                                }
                            }
                            JOINT RightFinger1
                            {
                                OFFSET  -8.364480   0.000000   3.252850
                                CHANNELS 3 Zrotation Xrotation Yrotation
                                JOINT RightFinger11
                                {
                                    OFFSET  -4.646930   0.000000   0.000000
                                    CHANNELS 3 Zrotation Xrotation Yrotation
                                    JOINT RightFinger12
                                    {
                                        OFFSET  -2.323470   0.000000   0.000000
                                        CHANNELS 3 Zrotation Xrotation Yrotation
                                        End Site
                                        {
                                            OFFSET  -2.273050   0.000000   0.000000
                                        }
                                    }
                                }
                            }
                            JOINT RightFinger2
                            {
                                OFFSET  -8.364480   0.000000   1.078090
                                CHANNELS 3 Zrotation Xrotation Yrotation
                                JOINT RightFinger21
                                {
                                    OFFSET  -5.111610   0.000000   0.000000
                                    CHANNELS 3 Zrotation Xrotation Yrotation
                                    JOINT RightFinger22
                                    {
                                        OFFSET  -2.788160   0.000000   0.000000
                                        CHANNELS 3 Zrotation Xrotation Yrotation
                                        End Site
                                        {
                                            OFFSET  -2.727660   0.000000   0.000000
                                        }
                                    }
                                }
                            }
                            JOINT RightFinger3
                            {
                                OFFSET  -7.899780   0.000000  -1.078090
                                CHANNELS 3 Zrotation Xrotation Yrotation
                                JOINT RightFinger31
                                {
                                    OFFSET  -4.646920   0.000000   0.000000
                                    CHANNELS 3 Zrotation Xrotation Yrotation
                                    JOINT RightFinger32
                                    {
                                        OFFSET  -2.323470   0.000000   0.000000
                                        CHANNELS 3 Zrotation Xrotation Yrotation
                                        End Site
                                        {
                                            OFFSET  -2.273050   0.000000   0.000000
                                        }
                                    }
                                }
                            }
                            JOINT RightFinger4
                            {
                                OFFSET  -7.435090   0.000000  -3.252850
                                CHANNELS 3 Zrotation Xrotation Yrotation
                                JOINT RightFinger41
                                {
                                    OFFSET  -3.717550   0.000000   0.000000
                                    CHANNELS 3 Zrotation Xrotation Yrotation
                                    JOINT RightFinger42
                                    {
                                        OFFSET  -1.858770   0.000000   0.000000
                                        CHANNELS 3 Zrotation Xrotation Yrotation
                                        End Site
                                        {
                                            OFFSET  -1.818440   0.000000   0.000000
                                        }
                                    }
                                }
                            }
                        }
                    }
                }
            }
        }
    }
    JOINT LeftHip
    {
        OFFSET   9.783010   0.000000   0.000000
        CHANNELS 3 Zrotation Xrotation Yrotation
        JOINT LeftKnee
        {
            OFFSET   0.000070 -41.789100   0.000028
            CHANNELS 3 Zrotation Xrotation Yrotation
            JOINT LeftAnkle
            {
                OFFSET   0.000087 -41.133200  -0.000100
                CHANNELS 3 Zrotation Xrotation Yrotation
                JOINT LeftToe
                {
                    OFFSET   0.000000  -6.358960  14.674500
                    CHANNELS 3 Zrotation Xrotation Yrotation
                    End Site
                    {
                        OFFSET   0.000000   0.000000   3.913200
                    }
                }
            }
        }
    }
    JOINT RightHip
    {
        OFFSET  -9.783020   0.000000   0.000000
        CHANNELS 3 Zrotation Xrotation Yrotation
        JOINT RightKnee
        {
            OFFSET   0.000044 -41.789100  -0.000870
            CHANNELS 3 Zrotation Xrotation Yrotation
            JOINT RightAnkle
            {
                OFFSET  -0.000090 -41.133200  -0.000245
                CHANNELS 3 Zrotation Xrotation Yrotation
                JOINT RightToe
                {
                    OFFSET   0.000000  -6.358960  14.674500
                    CHANNELS 3 Zrotation Xrotation Yrotation
                    End Site
                    {
                        OFFSET   0.000000   0.000000   3.913200
                    }
                }
            }
        }
    }
}
MOTION
Frames: 4
Frame Time:   0.016667
 -1.627780  89.476600  -0.149774  -1.956030  -4.594870 -13.796700   2.487610   5.187520  -1.898000   5.178770  10.284400  -4.045600   0.819883  -3.632260   0.046444   1.361350  -7.361110  17.827100  -4.901570   1.635230   9.480660 -77.980600  13.731800  -5.233560  -1.846540   0.674539 -13.647900   8.622430  -2.601010  -1.882040  40.280100  35.134000 -50.976300 -33.594100   0.018015   0.018269 -11.797100   0.008655   0.000360 -33.188000  -1.518060   2.318910 -27.178900   0.025651   0.035319 -19.025200   0.008103   0.029115 -29.258000  -3.745390   6.652890 -44.213400   0.096211  -0.088803 -29.446200   0.097315   0.018663 -28.123700  -3.613820   6.725710 -34.524300   0.016127  -0.030704 -22.993200   0.044120  -0.021040 -33.171400  -4.191730   6.382010 -50.107700  -0.002153  -0.003308 -33.371800  -0.002800  -0.003549   0.934731  -2.952530   7.188020  65.414400  -6.554500  71.470900   1.849530 -24.947700 128.429000   5.380970  -4.100150   9.461260 -54.395800  37.283300  72.192400 -18.628100  -0.007953  -0.002650 -14.355100  -0.001527  -0.001414  88.995800   5.002030   0.092588  88.988800  -0.000255  -0.004597  66.741600   0.004637  -0.003333  89.000000   0.004571  -0.001639  90.701000  -0.000226  -0.002504  68.025800   0.002739  -0.001156  88.996000  -5.005190  -0.089185  94.961200  -0.000357  -0.001247  71.220900   0.001390  -0.002198  88.984200 -10.004700  -0.178612 110.000000   0.000000   0.000853  79.999900  -0.006001   0.003637   3.466320   6.916390   1.792190  -0.363472   3.310520  18.925500  -3.286870  -5.253930   2.328250  -0.000000   0.000000  -0.000000   0.974361   4.737930  -3.688310  -0.201942   3.093010  -5.108590   0.460749  -2.947320   8.274030   0.000000   0.000000   0.000000
 -1.656300  89.481900  -0.169242  -1.949160  -4.645030 -13.600000   2.477450   5.178740  -1.909400   5.158860  10.266500  -4.067540   0.818424  -3.563610   0.045622   1.359540  -7.221580  17.788600  -4.919890   1.593260   9.516710 -78.001500  13.725900  -5.188660  -1.889070   0.657508 -13.704600   8.570630  -2.553430  -1.912210  40.428000  35.350200 -51.175000 -33.575800  -0.009530   0.006206 -11.787900  -0.004517  -0.000686 -33.210700  -1.488240   2.272070 -27.196400   0.013357   0.025645 -19.037500   0.002583   0.020088 -29.242500  -3.745340   6.657320 -44.190300  -0.043006   0.055178 -29.430700  -0.051679   0.004022 -28.128500  -3.615540   6.728760 -34.569200  -0.007131   0.038017 -23.023100  -0.022092   0.018492 -33.221100  -4.200400   6.381460 -50.183000   0.003231   0.019975 -33.421900  -0.008025   0.010660   0.963617  -2.961040   7.226890  65.438400  -6.426150  71.417300   1.612890 -25.242000 128.967000   5.223910  -4.597970   8.592140 -54.871400  37.516400  72.406800 -17.995900  -0.008231  -0.002631 -13.997900  -0.001543  -0.001388  88.995800   5.001960   0.092619  88.894600   0.000530  -0.004616  66.671000   0.004651  -0.003379  89.000000   0.004587  -0.001564  90.619400   0.000222  -0.002667  67.964600   0.002868  -0.001267  88.996000  -5.005200  -0.089267  94.866200   0.000186  -0.001241  71.149600   0.001442  -0.002241  88.984200 -10.004700  -0.178688 110.000000   0.000000   0.000858  79.999900  -0.006021   0.003545   3.499700   6.904500   1.797140  -0.342624   3.340770  18.863700  -3.322970  -5.223520   2.197920   0.000000   0.000000   0.000000   0.973289   4.784140  -3.719640  -0.160544   3.102490  -5.202270   0.505304  -2.986470   8.226370  -0.000000   0.000000   0.000000
 -1.683380  89.486900  -0.190445  -1.943320  -4.722600 -13.411400   2.459120   5.185820  -1.909030   5.122200  10.281200  -4.066510   0.809984  -3.497620   0.044722   1.345250  -7.087850  17.743100  -4.938950   1.537610   9.514930 -77.999100  13.719000  -5.137140  -1.926430   0.680350 -13.782100   8.513080  -2.508430  -1.953870  40.355900  35.188000 -51.072100 -33.529500   0.006874   0.010838 -11.764800   0.003241  -0.000693 -33.222000  -1.455300   2.220790 -27.204700   0.010417   0.023016 -19.043300   0.002583   0.017527 -29.282000  -3.745400   6.646140 -44.249200  -0.000056  -0.016484 -29.470000   0.009342  -0.016403 -28.131300  -3.613000   6.719980 -34.594700  -0.000757  -0.053863 -23.040000   0.009853  -0.018927 -33.266700  -4.202310   6.369970 -50.251400   0.003231  -0.012099 -33.467400   0.000302  -0.008710   1.004830  -2.959520   7.252990  65.447400  -6.270930  71.357600   1.409160 -25.613400 129.078000   5.128610  -4.887020   7.760170 -55.304700  37.751000  72.667500 -17.543100  -0.008503  -0.002657 -13.769200  -0.001555  -0.001366  88.995800   5.001880   0.092647  88.817600   0.001676  -0.004631  66.613300   0.004673  -0.003557  89.000000   0.004599  -0.001491  90.677100   0.000697  -0.002828  68.007900   0.002991  -0.001379  88.996000  -5.005200  -0.089348  94.902800   0.000846  -0.001243  71.177000   0.001499  -0.002285  88.984200 -10.004800  -0.178767 110.000000   0.000000   0.000866  79.999900  -0.006042   0.003454   3.514100   6.957280   1.762040  -0.320831   3.318420  18.855600  -3.363600  -5.172520   2.059390   0.000000   0.000000   0.000000   0.965322   4.835260  -3.758640  -0.120065   3.139070  -5.289400   0.539721  -3.026490   8.187780  -0.000000   0.000000   0.000000
 -1.708790  89.489800  -0.211709  -1.933680  -4.821080 -13.226400   2.431760   5.199580  -1.906370   5.067670  10.310000  -4.058360   0.790437  -3.434340   0.043771   1.312230  -6.959840  17.679500  -4.955260   1.479250   9.503950 -77.986400  13.693400  -5.085770  -1.953350   0.738164 -13.866900   8.470600  -2.470620  -1.996160  40.260300  34.973100 -50.914100 -33.483100   0.023277   0.015470 -11.741600   0.011000  -0.000695 -33.225000  -1.434900   2.189360 -27.206600   0.009169   0.020497 -19.044600   0.002583   0.015691 -29.321600  -3.745470   6.634970 -44.308000   0.052158  -0.107025 -29.509200   0.084171  -0.033683 -28.132400  -3.610460   6.711190 -34.603400   0.006725  -0.145743 -23.045700   0.050317  -0.064928 -33.298100  -4.202960   6.359410 -50.298000   0.003226  -0.044978 -33.498400   0.011584  -0.028081   1.054960  -2.949920   7.267140  65.434700  -6.088390  71.275600   0.992119 -26.087100 128.866000   5.022980  -5.114300   6.951950 -55.735400  37.983900  72.954000 -17.226800  -0.008765  -0.002695 -13.613400  -0.001566  -0.001345  88.995700   5.001800   0.092672  88.670700   0.002976  -0.004644  66.503100   0.004697  -0.004591  89.000000   0.004610  -0.001419  90.759800   0.001213  -0.002977  68.069900   0.003116  -0.001516  88.996000  -5.005210  -0.089427  94.939300   0.001575  -0.001251  71.204400   0.001557  -0.002341  88.984100 -10.004800  -0.178845 110.000000   0.000000   0.000876  79.999900  -0.006064   0.003363   3.521890   7.058010   1.695760  -0.297724   3.271540  18.853600  -3.405940  -5.105530   1.922500  -0.000000   0.000000   0.000000   0.952254   4.900610  -3.783770  -0.084197   3.190900  -5.376930   0.569831  -3.071690   8.144520  -0.000000   0.000000   0.000000
